<svg width="30" height="30" viewBox="0 0 30 30" fill="none" xmlns="http://www.w3.org/2000/svg">
<g id="Frame">
<rect width="30" height="30" rx="15" fill="white"/>
<path id="Vector" d="M12.8906 12.8906L17.1094 17.1094M17.1094 12.8906L12.8906 17.1094M23.4375 15C23.4375 16.108 23.2193 17.2052 22.7952 18.2289C22.3712 19.2526 21.7497 20.1827 20.9662 20.9662C20.1827 21.7497 19.2526 22.3712 18.2289 22.7952C17.2052 23.2193 16.108 23.4375 15 23.4375C13.892 23.4375 12.7948 23.2193 11.7711 22.7952C10.7474 22.3712 9.81728 21.7497 9.03379 20.9662C8.25029 20.1827 7.62879 19.2526 7.20477 18.2289C6.78074 17.2052 6.5625 16.108 6.5625 15C6.5625 12.7622 7.45145 10.6161 9.03379 9.03379C10.6161 7.45145 12.7622 6.5625 15 6.5625C17.2378 6.5625 19.3839 7.45145 20.9662 9.03379C22.5486 10.6161 23.4375 12.7622 23.4375 15Z" stroke="#121212" stroke-width="1.5" stroke-linecap="round" stroke-linejoin="round"/>
</g>
</svg>
